HIERARCHY
ROOT Hips
{
	OFFSET 0.000000 0.000000 0.000000
	CHANNELS 6 Xposition Yposition Zposition Xrotation Yrotation Zrotation
	JOINT LeftUpLeg_virtual
	{
		OFFSET 0.000000 0.000000 0.000000
		CHANNELS 3 Xrotation Yrotation Zrotation
		JOINT LeftUpLeg
		{
			OFFSET 15.427100 -6.655098 0.678600
			CHANNELS 3 Xrotation Yrotation Zrotation
			JOINT LeftLeg
			{
				OFFSET 4.081073 -39.591068 13.024000
				CHANNELS 3 Xrotation Yrotation Zrotation
				JOINT LeftFoot
				{
					OFFSET -4.081074 -37.707932 -15.979700
					CHANNELS 3 Xrotation Yrotation Zrotation
					JOINT LeftToeBase
					{
						OFFSET 5.346399 -15.068900 20.645000
						CHANNELS 3 Xrotation Yrotation Zrotation
						JOINT LeftToe_End
						{
							OFFSET 2.754700 0.931300 11.300900
							CHANNELS 3 Xrotation Yrotation Zrotation
							End Site
							{
								OFFSET 0 0 0
							}
						}
					}
				}
			}
		}
	}
	JOINT RightUpLeg_virtual
	{
		OFFSET 0.000000 0.000000 0.000000
		CHANNELS 3 Xrotation Yrotation Zrotation
		JOINT RightUpLeg
		{
			OFFSET -15.569500 -6.655098 0.678600
			CHANNELS 3 Xrotation Yrotation Zrotation
			JOINT RightLeg
			{
				OFFSET -4.081825 -39.591045 13.023800
				CHANNELS 3 Xrotation Yrotation Zrotation
				JOINT RightFoot
				{
					OFFSET 4.081824 -37.707954 -15.979600
					CHANNELS 3 Xrotation Yrotation Zrotation
					JOINT RightToeBase
					{
						OFFSET -5.346400 -15.068900 20.645000
						CHANNELS 3 Xrotation Yrotation Zrotation
						JOINT RightToe_End
						{
							OFFSET -2.754700 0.931300 11.300900
							CHANNELS 3 Xrotation Yrotation Zrotation
							End Site
							{
								OFFSET 0 0 0
							}
						}
					}
				}
			}
		}
	}
	JOINT Spine_virtual
	{
		OFFSET 0.000000 0.000000 0.000000
		CHANNELS 3 Xrotation Yrotation Zrotation
		JOINT Spine
		{
			OFFSET -0.279200 12.230698 -2.892100
			CHANNELS 3 Xrotation Yrotation Zrotation
			JOINT Spine1
			{
				OFFSET -0.232667 10.192268 -1.242267
				CHANNELS 3 Xrotation Yrotation Zrotation
				JOINT Spine1_split
				{
					OFFSET -0.232667 10.192268 -1.242267
					CHANNELS 3 Xrotation Yrotation Zrotation
					JOINT Spine2
					{
						OFFSET -0.232667 10.192268 -1.242267
						CHANNELS 3 Xrotation Yrotation Zrotation
						JOINT Neck_virtual
						{
							OFFSET 0.000000 0.000000 0.000000
							CHANNELS 3 Xrotation Yrotation Zrotation
							JOINT Neck
							{
								OFFSET -0.418800 17.814194 8.416900
								CHANNELS 3 Xrotation Yrotation Zrotation
								JOINT Head
								{
									OFFSET 0.000000 7.031097 3.806800
									CHANNELS 3 Xrotation Yrotation Zrotation
									JOINT HeadTop_End
									{
										OFFSET 0.000000 24.646606 12.978600
										CHANNELS 3 Xrotation Yrotation Zrotation
										End Site
										{
											OFFSET 0 0 0
										}
									}
								}
							}
						}
						JOINT LeftShoulder_virtual
						{
							OFFSET 0.000000 0.000000 0.000000
							CHANNELS 3 Xrotation Yrotation Zrotation
							JOINT LeftShoulder
							{
								OFFSET 8.476499 7.247704 -3.868750
								CHANNELS 3 Xrotation Yrotation Zrotation
								JOINT LeftShoulder_split
								{
									OFFSET 8.476499 7.247704 -3.868750
									CHANNELS 3 Xrotation Yrotation Zrotation
									JOINT LeftArm
									{
										OFFSET 9.308998 -2.777710 0.208600
										CHANNELS 3 Xrotation Yrotation Zrotation
										JOINT LeftForeArm
										{
											OFFSET 29.972298 0.000000 0.000000
											CHANNELS 3 Xrotation Yrotation Zrotation
											JOINT LeftHand
											{
												OFFSET 26.026505 0.000000 0.000000
												CHANNELS 3 Xrotation Yrotation Zrotation
												End Site
												{
													OFFSET 0 0 0
												}
											}
										}
									}
								}
							}
						}
						JOINT RightShoulder_virtual
						{
							OFFSET 0.000000 0.000000 0.000000
							CHANNELS 3 Xrotation Yrotation Zrotation
							JOINT RightShoulder
							{
								OFFSET -7.570500 7.247704 -3.868750
								CHANNELS 3 Xrotation Yrotation Zrotation
								JOINT RightShoulder_split
								{
									OFFSET -7.570500 7.247704 -3.868750
									CHANNELS 3 Xrotation Yrotation Zrotation
									JOINT RightArm
									{
										OFFSET -9.308998 -2.777710 0.208500
										CHANNELS 3 Xrotation Yrotation Zrotation
										JOINT RightForeArm
										{
											OFFSET -29.972300 0.000000 0.000000
											CHANNELS 3 Xrotation Yrotation Zrotation
											JOINT RightHand
											{
												OFFSET -26.026505 0.000000 0.000000
												CHANNELS 3 Xrotation Yrotation Zrotation
												End Site
												{
													OFFSET 0 0 0
												}
											}
										}
									}
								}
							}
						}
					}
				}
			}
		}
	}
}
MOTION
Frames: 7
Frame Time: 0.03333333
-0.406156 83.585693 44.433807 0.000000 0.000000 0.000000 9.584547 -5.896230 0.259224 -30.016246 5.734416 19.616407 36.959725 6.869707 -0.106142 -13.279203 -3.421208 -15.085859 0.773850 -0.741721 0.837477 0.000000 0.000000 0.000000 9.920461 -5.691282 0.510987 -31.217400 -1.776186 -7.516086 38.298247 3.587131 -2.265961 -14.542207 -10.919595 8.762573 2.059910 0.682401 0.596105 0.000000 0.000000 0.000000 9.675536 -5.267136 0.009520 6.451439 0.217375 -0.567106 1.792498 -0.350133 0.426335 1.103108 1.571512 -0.072566 0.000000 0.000000 0.000000 1.716556 -0.803121 0.353570 12.494696 -0.414474 0.704375 -30.167788 0.676248 -4.918064 0.000000 0.000000 0.000000 1.621703 -0.700442 0.670043 5.917423 -9.344457 19.450502 -1.234408 -4.206736 -0.033154 -33.109229 -15.120249 -13.790799 178.401358 -58.143392 179.708916 0.000000 0.000000 0.000000 0.880689 -0.755749 0.566617 -0.818484 -8.203895 -16.405636 0.367704 -0.560524 1.994699 -38.504239 35.802267 31.278090 179.106138 52.080739 -179.663495 0.000000 0.000000 0.000000 
-0.493629 85.386780 45.533611 0.000000 0.000000 0.000000 9.823040 -5.678786 0.414741 -26.748450 6.905235 18.852166 31.913130 7.128961 -0.149237 -12.490510 -3.350870 -14.665651 1.299886 -0.601364 0.496603 0.000000 0.000000 0.000000 10.283745 -5.300923 0.556879 -27.822113 -2.130271 -7.391095 33.277399 3.324755 -2.258728 -12.820811 -11.001961 8.857660 1.368322 0.614820 0.683559 0.000000 0.000000 0.000000 10.084537 -5.080844 0.140516 6.155449 0.105817 -0.506416 0.926443 -0.378239 0.285234 1.214742 1.471676 0.041880 0.000000 0.000000 0.000000 0.713352 -0.825532 0.222699 12.252020 -0.387847 0.914467 -29.141856 0.572924 -4.699790 0.000000 0.000000 0.000000 0.573925 -0.751475 0.492150 5.927423 -9.383223 19.223644 -1.464751 -3.976147 -0.040194 -32.546849 -15.610894 -14.148155 178.643393 -58.414428 179.923411 0.000000 0.000000 0.000000 -0.180069 -0.764564 0.468656 -0.930514 -8.154015 -16.398495 0.548391 -0.914689 2.086624 -36.996532 36.617443 30.585737 179.004396 52.305131 -179.328229 0.000000 0.000000 0.000000 
-0.560027 86.956871 46.471935 0.000000 0.000000 0.000000 10.064827 -5.387280 0.555411 -23.719686 7.929642 18.057557 27.121971 7.309617 -0.167919 -11.639044 -3.454600 -14.404174 1.751852 -0.436253 0.235578 0.000000 0.000000 0.000000 10.603065 -4.859556 0.592819 -24.683930 -2.327102 -7.350305 28.794223 3.033544 -2.203237 -11.253426 -11.075678 8.879866 0.956102 0.545462 0.762609 0.000000 0.000000 0.000000 10.446198 -4.752641 0.266415 5.925309 0.000738 -0.486324 0.150187 -0.432782 0.196753 1.260123 1.355886 0.146883 0.000000 0.000000 0.000000 -0.133974 -0.870412 0.154941 11.830383 -0.362918 1.018505 -28.133621 0.538941 -4.518475 0.000000 0.000000 0.000000 -0.349637 -0.801821 0.366043 5.828752 -9.072165 18.993050 -1.586230 -3.897902 -0.013916 -31.666861 -16.907090 -14.416950 178.888720 -58.872351 -179.868619 0.000000 0.000000 0.000000 -1.100463 -0.795936 0.400046 -1.084717 -8.185308 -16.279795 0.591512 -1.319803 2.117706 -35.440086 37.499057 30.099247 178.888829 52.598699 -178.952254 0.000000 0.000000 0.000000 
-0.591041 88.127296 47.146870 0.000000 0.000000 0.000000 10.224720 -5.088657 0.658206 -21.264500 8.710953 17.382299 23.109798 7.386691 -0.196591 -10.667992 -3.736257 -14.371818 2.024447 -0.263164 0.073521 0.000000 0.000000 0.000000 10.856494 -4.453362 0.620411 -22.135239 -2.409169 -7.418385 25.155264 2.764054 -2.110412 -10.014400 -11.085509 8.819420 1.037439 0.485237 0.806765 0.000000 0.000000 0.000000 10.728545 -4.382149 0.364511 5.779523 -0.074317 -0.485456 -0.464596 -0.498836 0.165507 1.251243 1.284681 0.157989 0.000000 0.000000 0.000000 -0.761615 -0.934453 0.156594 11.360261 -0.344177 1.050999 -27.132074 0.593054 -4.410230 0.000000 0.000000 0.000000 -1.094263 -0.848455 0.311881 5.646990 -8.397177 18.788389 -1.670512 -3.856453 0.038941 -30.690209 -18.798077 -14.631180 179.157201 -59.029015 -179.604168 0.000000 0.000000 0.000000 -1.792442 -0.838037 0.367777 -1.266028 -8.305735 -16.072697 0.467662 -1.506624 2.122192 -34.097629 38.160513 29.909139 178.799791 52.820370 -178.641521 0.000000 0.000000 0.000000 
-0.602641 88.868233 47.553230 0.000000 0.000000 0.000000 10.322076 -4.884377 0.725315 -19.552680 9.194367 16.905434 20.207839 7.387050 -0.260701 -9.568403 -4.166771 -14.507535 2.249097 -0.098841 -0.008879 0.000000 0.000000 0.000000 11.034307 -4.161154 0.630401 -20.338872 -2.395390 -7.580806 22.570773 2.546872 -1.965552 -9.113221 -11.035497 8.690302 1.414379 0.436827 0.819569 0.000000 0.000000 0.000000 10.916248 -4.024511 0.430668 5.716704 -0.106606 -0.476439 -0.902617 -0.567646 0.171897 1.232240 1.276512 0.098045 0.000000 0.000000 0.000000 -1.169214 -1.004350 0.210305 10.975450 -0.299263 1.046781 -26.113104 0.724990 -4.388336 0.000000 0.000000 0.000000 -1.653338 -0.878044 0.312566 5.402351 -7.380778 18.521064 -1.580582 -4.026246 0.111347 -29.614037 -20.981014 -14.922886 179.415354 -58.538683 -179.331657 0.000000 0.000000 0.000000 -2.226118 -0.883445 0.349613 -1.441647 -8.483807 -15.835778 0.123944 -1.439728 2.203361 -32.929913 38.318669 29.985808 178.792810 52.831868 -178.491722 0.000000 0.000000 0.000000 
-0.615329 89.241089 47.700855 0.000000 0.000000 0.000000 10.364002 -4.782740 0.764861 -18.619635 9.422114 16.643125 18.445679 7.403016 -0.383988 -8.507061 -4.639838 -14.611229 2.589915 0.049543 -0.076380 0.000000 0.000000 0.000000 11.158980 -3.929519 0.640195 -19.251385 -2.348853 -7.790313 20.946703 2.353557 -1.787596 -8.507164 -10.960268 8.497934 1.779026 0.391255 0.806578 0.000000 0.000000 0.000000 10.993223 -3.690902 0.459320 5.718108 -0.095932 -0.444067 -1.185014 -0.629450 0.188285 1.152251 1.228178 -0.000672 0.000000 0.000000 0.000000 -1.421324 -1.072500 0.274354 10.781380 -0.224761 1.023012 -25.017873 0.882301 -4.465647 0.000000 0.000000 0.000000 -2.052822 -0.893328 0.335300 5.143442 -6.175415 18.069645 -1.280300 -4.262278 0.204619 -28.271522 -23.161489 -15.414173 179.588814 -57.513758 -179.132393 0.000000 0.000000 0.000000 -2.453271 -0.927037 0.326714 -1.579315 -8.663778 -15.606000 -0.380468 -1.266668 2.241403 -31.725235 37.778722 30.287825 178.900645 52.604730 -178.563671 0.000000 0.000000 0.000000 
-0.656454 89.359871 47.569965 0.000000 0.000000 0.000000 10.362170 -4.784928 0.792403 -18.297032 9.393641 16.520300 17.548513 7.487731 -0.526310 -7.651304 -5.045569 -14.555468 2.977346 0.183345 -0.146618 0.000000 0.000000 0.000000 11.214167 -3.779183 0.650360 -18.781147 -2.312505 -7.991992 20.060575 2.135640 -1.600336 -8.122475 -10.930784 8.265630 1.951080 0.333500 0.791791 0.000000 0.000000 0.000000 11.002849 -3.448331 0.461940 5.751929 -0.044435 -0.368638 -1.368295 -0.673699 0.197929 1.051013 1.269602 -0.052030 0.000000 0.000000 0.000000 -1.620779 -1.133880 0.324786 10.807321 -0.120545 0.994670 -23.820537 0.989120 -4.624353 0.000000 0.000000 0.000000 -2.340149 -0.915512 0.345005 4.934394 -5.029810 17.297171 -0.835933 -4.490335 0.429873 -26.543461 -25.054573 -16.273955 179.596737 -56.516687 -179.136546 0.000000 0.000000 0.000000 -2.543438 -0.955298 0.291116 -1.658210 -8.749680 -15.439448 -0.764548 -1.033379 2.231445 -30.254145 36.601075 30.872011 179.089691 52.220887 -178.825800 0.000000 0.000000 0.000000 
